# xmcd CD database file
#
# Track frame offsets:
#	150
#	41900
#	71226
#	112617
#	144795
#	179193
#	196311
#	220488
#
# Disc length: 3268 seconds
#
# Revision: 0
# Processed by: cddbd v1.5.2PL0 Copyright (c) Steve Scherf et al.
# Submitted via: CDex 1.91
#
DISCID=7b0cc208
DTITLE=The Edmund Velasco Quintet - Alligator Rhythm
DYEAR=1997
DGENRE=Jazz
TTITLE0=Divide and Conquer
TTITLE1=Cat Walk
TTITLE2=Alligator Rhythm
TTITLE3=Lauren's Lullaby
TTITLE4=Down to the Beams
TTITLE5=Blank Stare
TTITLE6=Sit and Talk
TTITLE7=No Contest
EXTD=YEAR: 1997
EXTT0=
EXTT1=
EXTT2=
EXTT3=
EXTT4=
EXTT5=
EXTT6=
EXTT7=
PLAYORDER=
